<svg id="Layer_1" data-name="Layer 1" xmlns="http://www.w3.org/2000/svg" viewBox="0 0 500 500"><defs><style>.cls-1{fill:#fff;}.cls-2{fill:#26547c;}.cls-3{fill:#ffd166;}</style></defs><rect class="cls-1" width="500" height="500" rx="100"/><path class="cls-2" d="M185.74,339.16A44.89,44.89,0,0,0,183.36,354q0,15.39,7.93,25-.36,11.83-10.57,11.83a13.78,13.78,0,0,1-4.77-.76,12,12,0,0,1-3.94-2.41,23.42,23.42,0,0,1-3.44-3.87c-1.07-1.48-2.12-3-3.18-4.54L128.5,322.78V379.6q0,5.56-2.58,8.41a8.73,8.73,0,0,1-2.58,2,9.09,9.09,0,0,1-4,.88,8.43,8.43,0,0,1-6.66-2.89c-1.68-1.91-2.52-4.71-2.52-8.37V304.8a21.33,21.33,0,0,1,1.06-7.48,10.72,10.72,0,0,1,4.17-4.86,11.35,11.35,0,0,1,6.29-1.89,16.53,16.53,0,0,1,1.72.1,9.46,9.46,0,0,1,2.81.77,10.82,10.82,0,0,1,3.29,2.31,24.07,24.07,0,0,1,2.9,3.77c1,1.55,2,3.15,3.07,4.82l37.79,57.18v-57.7q0-5.62,2.42-8.43a8.17,8.17,0,0,1,6.52-2.82,8.44,8.44,0,0,1,6.72,2.8c1.63,1.88,2.44,4.69,2.45,8.44V329A33.41,33.41,0,0,0,185.74,339.16Z"/><path class="cls-2" d="M246.27,358.22a18.19,18.19,0,0,0,5.6-1.66q3.91-2,3.95-8.83A30.29,30.29,0,0,0,252,333.31a29.29,29.29,0,0,0-11.35-11.54,27.73,27.73,0,0,0-3.07-1.57,37,37,0,0,0-15.12-2.9,39.92,39.92,0,0,0-14.82,2.63,30,30,0,0,0-11.25,7.5c-.48.52-1,1.05-1.39,1.59a33.44,33.44,0,0,0-5.56,10.16A44.83,44.83,0,0,0,187.1,354q0,15.39,7.92,25c.55.65,1.13,1.31,1.74,1.92q9.66,9.91,27.07,9.93a41.89,41.89,0,0,0,13.47-2,32.85,32.85,0,0,0,9.72-5,22.24,22.24,0,0,0,5.79-6.28h0l-.32-.93-3.57-10.57h-.43a5.9,5.9,0,0,0-3.94,1.2c-2.25,2.1-4.08,3.79-5.5,5a38.75,38.75,0,0,1-4.6,3.47,19.08,19.08,0,0,1-5.19,2.38,21.52,21.52,0,0,1-5.92.76,16.62,16.62,0,0,1-15.25-9.45,23.87,23.87,0,0,1-2.48-10.85H241A37.88,37.88,0,0,0,246.27,358.22Zm-40.74-9.9q.91-9.12,5.25-13.8a14.44,14.44,0,0,1,11.09-4.67,15,15,0,0,1,11.42,4.6q4.34,4.6,5,13.86Z"/><path class="cls-3" d="M328.41,328a18.07,18.07,0,0,0-3.25,10.25,15.37,15.37,0,0,0,3.52,10.25,23.2,23.2,0,0,0,6,5L331,364.29l-4.21,12.34-.56,1.6h0q-1.51,4.26-2.42,6.33a11.8,11.8,0,0,1-3.34,4.36,11.14,11.14,0,0,1-12.71-.12,12.58,12.58,0,0,1-3.47-5q-1.12-3-2.44-7.73l-10.33-35.19-10,35.2a42.4,42.4,0,0,1-4.31,11.07c-1.55,2.5-4.27,3.74-8.14,3.74a10.12,10.12,0,0,1-5.06-1.16,9.71,9.71,0,0,1-3.48-3.29,25.16,25.16,0,0,1-2.44-5.1c-.54-1.47-1-2.72-1.32-3.73-.11-.33-.22-.66-.32-.93l-3.57-10.57-2.63-7.84a17.92,17.92,0,0,0,5.6-1.66q3.94-2,3.91-8.83A30.42,30.42,0,0,0,256,333.32a29.42,29.42,0,0,0-11.35-11.54,27.73,27.73,0,0,0-3.07-1.57,6,6,0,0,1,.42-.46,7.75,7.75,0,0,1,5.69-2.31q4.5,0,6.09,2.55a37.75,37.75,0,0,1,3.37,8.7L269,369l10.68-37.54q1.72-5.91,2.55-8a10.54,10.54,0,0,1,3.11-4.1,9.24,9.24,0,0,1,6.25-2,9.5,9.5,0,0,1,6.32,2,11.35,11.35,0,0,1,3.21,4.24c.61,1.52,1.48,4.16,2.59,7.88L314.37,369l11.91-40.34c.8-2.92,1.44-5,1.92-6.32a8.5,8.5,0,0,1,2.45-3.44,7.45,7.45,0,0,1,5-1.49,7.84,7.84,0,0,1,5.1,1.81,24.83,24.83,0,0,0-2.75,1.07A22.56,22.56,0,0,0,328.41,328Z"/><path class="cls-3" d="M390,367.24a20.92,20.92,0,0,1-14.39,20.87,48.41,48.41,0,0,1-17.3,2.74,42.3,42.3,0,0,1-16.68-3q-6.93-3-10.26-7.44a18.88,18.88,0,0,1-1.42-2.21h0c.17-.51.36-1,.56-1.59l4.2-12.34c.26,0,.55,0,.83,0a6.27,6.27,0,0,1,4.37,1.39,15,15,0,0,1,2.91,3.9,19.82,19.82,0,0,0,6.65,7.23q3.87,2.38,10.56,2.38a15.35,15.35,0,0,0,8.9-2.41q3.46-2.42,3.47-5.53,0-4.77-3.6-6.94T357,360.11a98.34,98.34,0,0,1-15.19-4.85,31.75,31.75,0,0,1-3.34-1.7,23,23,0,0,1-6-5,15.32,15.32,0,0,1-3.51-10.26A18,18,0,0,1,332.13,328a22.25,22.25,0,0,1,9.56-7.71,27.14,27.14,0,0,1,2.76-1.07,40,40,0,0,1,12.49-1.81,50,50,0,0,1,12.6,1.46,31.63,31.63,0,0,1,9.33,3.9,19.26,19.26,0,0,1,5.69,5.43,10.56,10.56,0,0,1,2,5.82,6.73,6.73,0,0,1-2.08,5.09,8.33,8.33,0,0,1-5.92,2,7.2,7.2,0,0,1-4.73-1.59,30.46,30.46,0,0,1-4.46-4.76,16.5,16.5,0,0,0-4.84-4.23A15.21,15.21,0,0,0,357,329a14.73,14.73,0,0,0-8.14,2.08c-2.16,1.39-3.25,3.11-3.25,5.18a5.62,5.62,0,0,0,2.39,4.67,19.78,19.78,0,0,0,6.42,3q4,1.19,11.11,2.91a59.23,59.23,0,0,1,13.74,4.9,22.91,22.91,0,0,1,8.06,6.73A14.9,14.9,0,0,1,390,367.24Z"/><path class="cls-2" d="M243.46,139.23a43.83,43.83,0,0,0-9.2-15,42.58,42.58,0,0,0-11.4-8.69c-.85-.44-1.7-.85-2.57-1.23a47.39,47.39,0,0,0-14.65-4.13,160.12,160.12,0,0,0-19.58-1H130.79q-11,0-15.9,5.15T110,130.91v135q0,10.63,4.46,16.14T127,287.5a15.65,15.65,0,0,0,12.25-5.25Q144,277,144,265.86V209.51h11.89q9,0,15,2.51t11.72,9.33q5.79,6.83,13.11,19.86l13.62,23.66q4.8,8.37,7.61,12.68a26.41,26.41,0,0,0,6.7,7.12,16,16,0,0,0,9.61,2.81h1a14.08,14.08,0,0,1-10.3-4.94q-4.36-5-4.35-15.12V218.25a61,61,0,0,0-15.64-12.93,83.34,83.34,0,0,0,15.64-5.09A48.6,48.6,0,0,0,236,188.69q10.58-11.72,10.58-31.34A52.09,52.09,0,0,0,243.46,139.23Zm-35.71,35.05q-4.41,5.33-12.75,7.54A81.92,81.92,0,0,1,174.42,184H144V135.82h31.35q17.5,0,23.46,2.63a21.77,21.77,0,0,1,9.86,8.31,23.53,23.53,0,0,1,3.55,12.86q0,9.34-4.43,14.66Z"/><path class="cls-3" d="M386.19,128.64V267.41q0,10-4.29,15.07a14.3,14.3,0,0,1-11.5,5,14,14,0,0,1-11.1-5q-4.37-5-4.36-15.07V146.35L328.05,258.07q-2.62,10.89-4.29,16a22.09,22.09,0,0,1-6.13,9.28q-4.45,4.19-12.35,4.18a18,18,0,0,1-10.08-2.69,19.06,19.06,0,0,1-6.42-6.87,40.6,40.6,0,0,1-3.61-9.28q-1.31-5.09-2.68-10.59l-26.9-111.72V267.41q0,10-4.3,15.07a14.16,14.16,0,0,1-11.38,5H239a14,14,0,0,1-10.3-4.94q-4.33-5-4.33-15.15V200.23a48.6,48.6,0,0,0,16.47-11.54q10.59-11.72,10.59-31.33a52.34,52.34,0,0,0-3.15-18.13,43.83,43.83,0,0,0-9.2-15,42.57,42.57,0,0,0-11.43-8.69,10.88,10.88,0,0,1,2.42-2.37q5.73-4,15.45-4H256c6.33,0,10.94.6,13.8,1.8a11.83,11.83,0,0,1,6.35,6.46,102.14,102.14,0,0,1,4.7,15.19l24.38,96.06,24.38-96.06a103.77,103.77,0,0,1,4.7-15.19,11.79,11.79,0,0,1,6.35-6.46q4.29-1.8,13.8-1.8H365q9.72,0,15.45,4T386.19,128.64Z"/></svg>